<svg xmlns="http://www.w3.org/2000/svg" viewBox="0 0 120 640" fill="none" aria-hidden="true">
  <!-- Main vine stem -->
  <path d="M38 8 C42 80, 28 140, 48 210 C68 280, 22 340, 40 410 C58 480, 30 540, 44 630"
        stroke="#3d6b4f" stroke-width="3" stroke-linecap="round"/>
  <path d="M40 12 C36 90, 52 150, 34 220 C16 290, 54 360, 36 430 C18 500, 48 560, 40 628"
        stroke="#2f5640" stroke-width="1.5" stroke-linecap="round" opacity="0.7"/>

  <!-- Leaves left/right along stem -->
  <g fill="#5a8f6a">
    <ellipse cx="28" cy="54" rx="14" ry="7" transform="rotate(-35 28 54)"/>
    <ellipse cx="58" cy="96" rx="13" ry="6" transform="rotate(28 58 96)"/>
    <ellipse cx="24" cy="148" rx="15" ry="7" transform="rotate(-40 24 148)"/>
    <ellipse cx="62" cy="198" rx="14" ry="6.5" transform="rotate(32 62 198)"/>
    <ellipse cx="22" cy="252" rx="16" ry="7" transform="rotate(-30 22 252)"/>
    <ellipse cx="60" cy="308" rx="13" ry="6" transform="rotate(38 60 308)"/>
    <ellipse cx="26" cy="368" rx="15" ry="7" transform="rotate(-36 26 368)"/>
    <ellipse cx="58" cy="422" rx="14" ry="6.5" transform="rotate(30 58 422)"/>
    <ellipse cx="24" cy="480" rx="15" ry="7" transform="rotate(-28 24 480)"/>
    <ellipse cx="56" cy="540" rx="13" ry="6" transform="rotate(34 56 540)"/>
    <ellipse cx="30" cy="590" rx="14" ry="6.5" transform="rotate(-32 30 590)"/>
  </g>
  <g fill="#3d6b4f" opacity="0.85">
    <ellipse cx="52" cy="70" rx="10" ry="5" transform="rotate(20 52 70)"/>
    <ellipse cx="32" cy="180" rx="11" ry="5" transform="rotate(-22 32 180)"/>
    <ellipse cx="54" cy="270" rx="10" ry="4.5" transform="rotate(25 54 270)"/>
    <ellipse cx="30" cy="400" rx="11" ry="5" transform="rotate(-18 30 400)"/>
    <ellipse cx="50" cy="500" rx="10" ry="4.5" transform="rotate(22 50 500)"/>
  </g>
  <!-- Leaf veins -->
  <g stroke="#2f5640" stroke-width="0.6" opacity="0.5">
    <path d="M20 54 L36 54"/>
    <path d="M48 96 L68 96"/>
    <path d="M14 148 L34 148"/>
    <path d="M52 198 L72 198"/>
  </g>
</svg>
